<svg xmlns="http://www.w3.org/2000/svg" xmlns:xlink="http://www.w3.org/1999/xlink" contentStyleType="text/css" data-diagram-type="ACTIVITY" height="566.6667px" preserveAspectRatio="none" style="width:387px;height:566px;" version="1.1" viewBox="0 0 387 566" width="387.5px" zoomAndPan="magnify"><defs/><g><ellipse cx="195.0974" cy="20.8333" fill="#6CC3D5" rx="10.4167" ry="10.4167" style="stroke:#6CAF9C;stroke-width:1.0417;"/><rect fill="#86C8B5" height="37.4674" rx="4.1667" ry="4.1667" style="stroke:#78C2AD;stroke-width:1.0417;" width="107.3907" x="141.4021" y="52.0833"/><text fill="#FFFFFF" font-family="Verdana" font-size="12.5" lengthAdjust="spacing" textLength="84.474" x="152.8604" y="75.1444">&#53364;&#46972;&#51060;&#50616;&#53944; &#50836;&#52397;</text><rect fill="none" height="247.7865" rx="4.1667" ry="4.1667" style="stroke:#78C2AD;stroke-width:1.0417;" width="365.0291" x="11.4583" y="99.9674"/><path d="M99.8637,99.9674 L99.8637,117.6432 L89.447,128.0599 L11.4583,128.0599" fill="none" style="stroke:#78C2AD;stroke-width:1.0417;"/><text fill="#78C2AD" font-family="Verdana" font-size="12.5" lengthAdjust="spacing" textLength="67.572" x="19.7917" y="117.8202">FilterChain</text><rect fill="#86C8B5" height="37.4674" rx="4.1667" ry="4.1667" style="stroke:#78C2AD;stroke-width:1.0417;" width="192.328" x="98.9335" y="145.7682"/><text fill="#FFFFFF" font-family="Verdana" font-size="12.5" lengthAdjust="spacing" textLength="169.4113" x="110.3918" y="168.8293">JwtAuthenticationFilter &#54840;&#52636;</text><polygon fill="#F4A1A4" points="143.9941,204.069,246.2008,204.069,258.7008,216.569,246.2008,229.069,143.9941,229.069,131.4941,216.569,143.9941,204.069" style="stroke:#DB878B;stroke-width:1.0417;"/><text fill="#FFFFFF" font-family="Verdana" font-size="12.5" lengthAdjust="spacing" textLength="91.79" x="149.2025" y="220.8964">&#50976;&#54952;&#54620; JWT&#51064;&#44032;?</text><text fill="#FFFFFF" font-family="Verdana" font-size="12.5" lengthAdjust="spacing" textLength="11.5001" x="114.7857" y="208.4127">&#50696;</text><text fill="#FFFFFF" font-family="Verdana" font-size="12.5" lengthAdjust="spacing" textLength="34.5003" x="263.9091" y="208.4127">&#50500;&#45768;&#50724;</text><rect fill="#86C8B5" height="37.4674" rx="4.1667" ry="4.1667" style="stroke:#78C2AD;stroke-width:1.0417;" width="161.847" x="23.9583" y="239.4857"/><text fill="#FFFFFF" font-family="Verdana" font-size="12.5" lengthAdjust="spacing" textLength="138.9304" x="35.4167" y="262.5468">DispatcherServlet &#51204;&#45804;</text><rect fill="#86C8B5" height="52.0182" rx="4.1667" ry="4.1667" style="stroke:#78C2AD;stroke-width:1.0417;" width="157.3487" x="206.6387" y="239.4857"/><text fill="#FFFFFF" font-family="Verdana" font-size="12.5" lengthAdjust="spacing" textLength="111.7554" x="218.097" y="262.5468">401 Unauthorized</text><text fill="#FFFFFF" font-family="Verdana" font-size="12.5" lengthAdjust="spacing" textLength="134.4321" x="218.097" y="277.0976">or 403 Forbidden &#48152;&#54872;</text><ellipse cx="285.313" cy="323.7956" fill="none" rx="11.4583" ry="11.4583" style="stroke:#6CAF9C;stroke-width:1.0417;"/><ellipse cx="285.313" cy="323.7956" fill="none" rx="6.25" ry="6.25" style="stroke:#6CAF9C;stroke-width:1.0417;"/><rect fill="none" height="154.069" rx="4.1667" ry="4.1667" style="stroke:#78C2AD;stroke-width:1.0417;" width="221.1529" x="84.521" y="358.1706"/><path d="M217.3111,358.1706 L217.3111,375.8464 L206.8944,386.263 L84.521,386.263" fill="none" style="stroke:#78C2AD;stroke-width:1.0417;"/><text fill="#78C2AD" font-family="Verdana" font-size="12.5" lengthAdjust="spacing" textLength="111.9568" x="92.8543" y="376.0234">DispatcherServlet</text><rect fill="#86C8B5" height="37.4674" rx="4.1667" ry="4.1667" style="stroke:#78C2AD;stroke-width:1.0417;" width="111.6517" x="139.2716" y="403.9714"/><text fill="#FFFFFF" font-family="Verdana" font-size="12.5" lengthAdjust="spacing" textLength="88.735" x="150.7299" y="427.0325">Controller &#52376;&#47532;</text><rect fill="#86C8B5" height="37.4674" rx="4.1667" ry="4.1667" style="stroke:#78C2AD;stroke-width:1.0417;" width="200.3196" x="94.9376" y="462.2721"/><text fill="#FFFFFF" font-family="Verdana" font-size="12.5" lengthAdjust="spacing" textLength="177.4029" x="106.396" y="485.3333">@ExceptionHandler &#54840;&#52636; &#44032;&#45733;</text><ellipse cx="195.0974" cy="544.5313" fill="none" rx="11.4583" ry="11.4583" style="stroke:#6CAF9C;stroke-width:1.0417;"/><ellipse cx="195.0974" cy="544.5313" fill="none" rx="6.25" ry="6.25" style="stroke:#6CAF9C;stroke-width:1.0417;"/><line style="stroke:#78C2AD;stroke-width:3.125;" x1="195.0974" x2="195.0974" y1="31.25" y2="52.0833"/><polygon fill="#78C2AD" points="190.9308,41.6667,195.0974,52.0833,199.2641,41.6667,195.0974,45.8333" style="stroke:#78C2AD;stroke-width:1.0417;"/><line style="stroke:#78C2AD;stroke-width:3.125;" x1="285.313" x2="285.313" y1="291.5039" y2="312.3372"/><polygon fill="#78C2AD" points="281.1464,301.9206,285.313,312.3372,289.4797,301.9206,285.313,306.0872" style="stroke:#78C2AD;stroke-width:1.0417;"/><line style="stroke:#78C2AD;stroke-width:3.125;" x1="131.4941" x2="104.8818" y1="216.569" y2="216.569"/><line style="stroke:#78C2AD;stroke-width:3.125;" x1="104.8818" x2="104.8818" y1="216.569" y2="239.4857"/><polygon fill="#78C2AD" points="100.7152,229.069,104.8818,239.4857,109.0485,229.069,104.8818,233.2357" style="stroke:#78C2AD;stroke-width:1.0417;"/><line style="stroke:#78C2AD;stroke-width:3.125;" x1="258.7008" x2="285.313" y1="216.569" y2="216.569"/><line style="stroke:#78C2AD;stroke-width:3.125;" x1="285.313" x2="285.313" y1="216.569" y2="239.4857"/><polygon fill="#78C2AD" points="281.1464,229.069,285.313,239.4857,289.4797,229.069,285.313,233.2357" style="stroke:#78C2AD;stroke-width:1.0417;"/><line style="stroke:#78C2AD;stroke-width:3.125;" x1="104.8818" x2="104.8818" y1="276.9531" y2="340.4622"/><line style="stroke:#78C2AD;stroke-width:3.125;" x1="104.8818" x2="195.0974" y1="340.4622" y2="340.4622"/><line style="stroke:#78C2AD;stroke-width:3.125;" x1="195.0974" x2="195.0974" y1="340.4622" y2="403.9714"/><polygon fill="#78C2AD" points="190.9308,393.5547,195.0974,403.9714,199.2641,393.5547,195.0974,397.7214" style="stroke:#78C2AD;stroke-width:1.0417;"/><line style="stroke:#78C2AD;stroke-width:3.125;" x1="195.0974" x2="195.0974" y1="183.2357" y2="204.069"/><polygon fill="#78C2AD" points="190.9308,193.6523,195.0974,204.069,199.2641,193.6523,195.0974,197.819" style="stroke:#78C2AD;stroke-width:1.0417;"/><line style="stroke:#78C2AD;stroke-width:3.125;" x1="195.0974" x2="195.0974" y1="89.5508" y2="145.7682"/><polygon fill="#78C2AD" points="190.9308,135.3516,195.0974,145.7682,199.2641,135.3516,195.0974,139.5182" style="stroke:#78C2AD;stroke-width:1.0417;"/><line style="stroke:#78C2AD;stroke-width:3.125;" x1="195.0974" x2="195.0974" y1="441.4388" y2="462.2721"/><polygon fill="#78C2AD" points="190.9308,451.8555,195.0974,462.2721,199.2641,451.8555,195.0974,456.0221" style="stroke:#78C2AD;stroke-width:1.0417;"/><line style="stroke:#78C2AD;stroke-width:3.125;" x1="195.0974" x2="195.0974" y1="499.7396" y2="533.0729"/><polygon fill="#78C2AD" points="190.9308,522.6563,195.0974,533.0729,199.2641,522.6563,195.0974,526.8229" style="stroke:#78C2AD;stroke-width:1.0417;"/><!--SRC=[PP0_ImCn6CRtV8hNpMuLEzqDAjKYNLLSNE9ToWNIvCZ5_mWA3gMkLcAvWmug3Wgb5Bd1J-Gbty7SNIa5C-PzVi_xFE-QYaYVG9zoTOLGeh1KoBFtyoBxCTdSFETsc8CPFvdPbuzGxCPKKS6XGvaYiXrXok46WNjUzqBjd3axhcY0Ir6j0QjpyvtwbOZsODsa4pl-iACKkiU79ij_ftTR3IX1DzE3HYMi77Tf4cCLH4GU47dEY08pUIWUFsilmXBYY97x6HZzkiArcXjmnB4B8oIz9k495n9QpKte27bAmz1jAgRQlcX_oIHAnBKh3saFtQvs_HzZqRWjk9A2CLVIp7JnlWZcRUzT1YGksNtCGxQy0RYgnV3DB-tBXNy0]--></g></svg>