<svg xmlns="http://www.w3.org/2000/svg" xmlns:xlink="http://www.w3.org/1999/xlink" contentStyleType="text/css" data-diagram-type="SEQUENCE" height="746px" preserveAspectRatio="none" style="width:1131px;height:746px;background:#FFFFFF;" version="1.1" viewBox="0 0 1131 746" width="1131px" zoomAndPan="magnify"><defs/><g><g><title>FilterChain</title><rect fill="#FFFFFF" height="535.5234" style="stroke:#181818;stroke-width:1;" width="10" x="138.2842" y="112.4297"/></g><g><title>DispatcherServlet</title><rect fill="#FFFFFF" height="492.3906" style="stroke:#181818;stroke-width:1;" width="10" x="262.8203" y="141.5625"/></g><g><title>HandlerAdapter</title><rect fill="#FFFFFF" height="285.5938" style="stroke:#181818;stroke-width:1;" width="10" x="441.3267" y="214.9609"/></g><g><title>Controller</title><rect fill="#FFFFFF" height="29.1328" style="stroke:#181818;stroke-width:1;" width="10" x="623.4385" y="274.3594"/></g><g><title>MessageConverter</title><rect fill="#FFFFFF" height="73.3984" style="stroke:#181818;stroke-width:1;" width="10" x="747.5679" y="362.8906"/></g><g><title>Client</title><rect fill="#000000" fill-opacity="0.00000" height="584.6563" width="8" x="24.2651" y="81.2969"/><line style="stroke:#181818;stroke-width:0.5;stroke-dasharray:5.0,5.0;" x1="28" x2="28" y1="81.2969" y2="665.9531"/></g><g><title>FilterChain</title><rect fill="#000000" fill-opacity="0.00000" height="584.6563" width="8" x="139.2842" y="81.2969"/><line style="stroke:#181818;stroke-width:0.5;stroke-dasharray:5.0,5.0;" x1="142.4438" x2="142.4438" y1="81.2969" y2="665.9531"/></g><g><title>DispatcherServlet</title><rect fill="#000000" fill-opacity="0.00000" height="584.6563" width="8" x="263.8203" y="81.2969"/><line style="stroke:#181818;stroke-width:0.5;stroke-dasharray:5.0,5.0;" x1="267.1245" x2="267.1245" y1="81.2969" y2="665.9531"/></g><g><title>HandlerAdapter</title><rect fill="#000000" fill-opacity="0.00000" height="584.6563" width="8" x="442.3267" y="81.2969"/><line style="stroke:#181818;stroke-width:0.5;stroke-dasharray:5.0,5.0;" x1="445.8701" x2="445.8701" y1="81.2969" y2="665.9531"/></g><g><title>Controller</title><rect fill="#000000" fill-opacity="0.00000" height="584.6563" width="8" x="624.4385" y="81.2969"/><line style="stroke:#181818;stroke-width:0.5;stroke-dasharray:5.0,5.0;" x1="627.8521" x2="627.8521" y1="81.2969" y2="665.9531"/></g><g><title>MessageConverter</title><rect fill="#000000" fill-opacity="0.00000" height="584.6563" width="8" x="748.5679" y="81.2969"/><line style="stroke:#181818;stroke-width:0.5;stroke-dasharray:5.0,5.0;" x1="752.0249" x2="752.0249" y1="81.2969" y2="665.9531"/></g><g><title>HttpServletResponse</title><rect fill="#000000" fill-opacity="0.00000" height="584.6563" width="8" x="1001.7227" y="81.2969"/><line style="stroke:#181818;stroke-width:0.5;stroke-dasharray:5.0,5.0;" x1="1004.8262" x2="1004.8262" y1="81.2969" y2="665.9531"/></g><g class="participant participant-head" data-participant="Client"><text fill="#000000" font-family="sans-serif" font-size="14" lengthAdjust="spacing" textLength="40.5303" x="5" y="77.9951">Client</text><ellipse cx="28.2651" cy="13.5" fill="#E2E2F0" rx="8" ry="8" style="stroke:#181818;stroke-width:0.5;"/><path d="M28.2651,21.5 L28.2651,48.5 M15.2651,29.5 L41.2651,29.5 M28.2651,48.5 L15.2651,63.5 M28.2651,48.5 L41.2651,63.5" fill="none" style="stroke:#181818;stroke-width:0.5;"/></g><g class="participant participant-tail" data-participant="Client"><text fill="#000000" font-family="sans-serif" font-size="14" lengthAdjust="spacing" textLength="40.5303" x="5" y="677.9482">Client</text><ellipse cx="28.2651" cy="689.75" fill="#E2E2F0" rx="8" ry="8" style="stroke:#181818;stroke-width:0.5;"/><path d="M28.2651,697.75 L28.2651,724.75 M15.2651,705.75 L41.2651,705.75 M28.2651,724.75 L15.2651,739.75 M28.2651,724.75 L41.2651,739.75" fill="none" style="stroke:#181818;stroke-width:0.5;"/></g><g class="participant participant-head" data-participant="Filter"><rect fill="#E2E2F0" height="30.2969" rx="2.5" ry="2.5" style="stroke:#181818;stroke-width:0.5;" width="89.6807" x="98.4438" y="50"/><text fill="#000000" font-family="sans-serif" font-size="14" lengthAdjust="spacing" textLength="75.6807" x="105.4438" y="69.9951">FilterChain</text></g><g class="participant participant-tail" data-participant="Filter"><rect fill="#E2E2F0" height="30.2969" rx="2.5" ry="2.5" style="stroke:#181818;stroke-width:0.5;" width="89.6807" x="98.4438" y="664.9531"/><text fill="#000000" font-family="sans-serif" font-size="14" lengthAdjust="spacing" textLength="75.6807" x="105.4438" y="684.9482">FilterChain</text></g><g class="participant participant-head" data-participant="Dispatcher"><rect fill="#E2E2F0" height="30.2969" rx="2.5" ry="2.5" style="stroke:#181818;stroke-width:0.5;" width="139.3916" x="198.1245" y="50"/><text fill="#000000" font-family="sans-serif" font-size="14" lengthAdjust="spacing" textLength="125.3916" x="205.1245" y="69.9951">DispatcherServlet</text></g><g class="participant participant-tail" data-participant="Dispatcher"><rect fill="#E2E2F0" height="30.2969" rx="2.5" ry="2.5" style="stroke:#181818;stroke-width:0.5;" width="139.3916" x="198.1245" y="664.9531"/><text fill="#000000" font-family="sans-serif" font-size="14" lengthAdjust="spacing" textLength="125.3916" x="205.1245" y="684.9482">DispatcherServlet</text></g><g class="participant participant-head" data-participant="Adapter"><rect fill="#E2E2F0" height="30.2969" rx="2.5" ry="2.5" style="stroke:#181818;stroke-width:0.5;" width="124.9131" x="383.8701" y="50"/><text fill="#000000" font-family="sans-serif" font-size="14" lengthAdjust="spacing" textLength="110.9131" x="390.8701" y="69.9951">HandlerAdapter</text></g><g class="participant participant-tail" data-participant="Adapter"><rect fill="#E2E2F0" height="30.2969" rx="2.5" ry="2.5" style="stroke:#181818;stroke-width:0.5;" width="124.9131" x="383.8701" y="664.9531"/><text fill="#000000" font-family="sans-serif" font-size="14" lengthAdjust="spacing" textLength="110.9131" x="390.8701" y="684.9482">HandlerAdapter</text></g><g class="participant participant-head" data-participant="Controller"><rect fill="#E2E2F0" height="30.2969" rx="2.5" ry="2.5" style="stroke:#181818;stroke-width:0.5;" width="83.1729" x="586.8521" y="50"/><text fill="#000000" font-family="sans-serif" font-size="14" lengthAdjust="spacing" textLength="69.1729" x="593.8521" y="69.9951">Controller</text></g><g class="participant participant-tail" data-participant="Controller"><rect fill="#E2E2F0" height="30.2969" rx="2.5" ry="2.5" style="stroke:#181818;stroke-width:0.5;" width="83.1729" x="586.8521" y="664.9531"/><text fill="#000000" font-family="sans-serif" font-size="14" lengthAdjust="spacing" textLength="69.1729" x="593.8521" y="684.9482">Controller</text></g><g class="participant participant-head" data-participant="Converter"><rect fill="#E2E2F0" height="30.2969" rx="2.5" ry="2.5" style="stroke:#181818;stroke-width:0.5;" width="145.0859" x="680.0249" y="50"/><text fill="#000000" font-family="sans-serif" font-size="14" lengthAdjust="spacing" textLength="131.0859" x="687.0249" y="69.9951">MessageConverter</text></g><g class="participant participant-tail" data-participant="Converter"><rect fill="#E2E2F0" height="30.2969" rx="2.5" ry="2.5" style="stroke:#181818;stroke-width:0.5;" width="145.0859" x="680.0249" y="664.9531"/><text fill="#000000" font-family="sans-serif" font-size="14" lengthAdjust="spacing" textLength="131.0859" x="687.0249" y="684.9482">MessageConverter</text></g><g class="participant participant-head" data-participant="Response"><rect fill="#E2E2F0" height="30.2969" rx="2.5" ry="2.5" style="stroke:#181818;stroke-width:0.5;" width="161.793" x="924.8262" y="50"/><text fill="#000000" font-family="sans-serif" font-size="14" lengthAdjust="spacing" textLength="147.793" x="931.8262" y="69.9951">HttpServletResponse</text></g><g class="participant participant-tail" data-participant="Response"><rect fill="#E2E2F0" height="30.2969" rx="2.5" ry="2.5" style="stroke:#181818;stroke-width:0.5;" width="161.793" x="924.8262" y="664.9531"/><text fill="#000000" font-family="sans-serif" font-size="14" lengthAdjust="spacing" textLength="147.793" x="931.8262" y="684.9482">HttpServletResponse</text></g><g><title>FilterChain</title><rect fill="#FFFFFF" height="535.5234" style="stroke:#181818;stroke-width:1;" width="10" x="138.2842" y="112.4297"/></g><g><title>DispatcherServlet</title><rect fill="#FFFFFF" height="492.3906" style="stroke:#181818;stroke-width:1;" width="10" x="262.8203" y="141.5625"/></g><g><title>HandlerAdapter</title><rect fill="#FFFFFF" height="285.5938" style="stroke:#181818;stroke-width:1;" width="10" x="441.3267" y="214.9609"/></g><g><title>Controller</title><rect fill="#FFFFFF" height="29.1328" style="stroke:#181818;stroke-width:1;" width="10" x="623.4385" y="274.3594"/></g><g><title>MessageConverter</title><rect fill="#FFFFFF" height="73.3984" style="stroke:#181818;stroke-width:1;" width="10" x="747.5679" y="362.8906"/></g><g class="message" data-participant-1="Client" data-participant-2="Filter"><polygon fill="#181818" points="126.2842,108.4297,136.2842,112.4297,126.2842,116.4297,130.2842,112.4297" style="stroke:#181818;stroke-width:1;"/><line style="stroke:#181818;stroke-width:1;" x1="28.2651" x2="132.2842" y1="112.4297" y2="112.4297"/><text fill="#000000" font-family="sans-serif" font-size="13" lengthAdjust="spacing" textLength="91.019" x="35.2651" y="107.3638">HTTP Request</text></g><g class="message" data-participant-1="Filter" data-participant-2="Dispatcher"><polygon fill="#181818" points="250.8203,137.5625,260.8203,141.5625,250.8203,145.5625,254.8203,141.5625" style="stroke:#181818;stroke-width:1;"/><line style="stroke:#181818;stroke-width:1;" x1="148.2842" x2="256.8203" y1="141.5625" y2="141.5625"/><text fill="#000000" font-family="sans-serif" font-size="13" lengthAdjust="spacing" textLength="83.4463" x="155.2842" y="136.4966">doDispatch()</text></g><g class="message" data-participant-1="Dispatcher" data-participant-2="Adapter"><polygon fill="#181818" points="434.3267,181.8281,444.3267,185.8281,434.3267,189.8281,438.3267,185.8281" style="stroke:#181818;stroke-width:1;"/><line style="stroke:#181818;stroke-width:1;" x1="272.8203" x2="440.3267" y1="185.8281" y2="185.8281"/><text fill="#000000" font-family="sans-serif" font-size="13" lengthAdjust="spacing" textLength="82.6782" x="279.8203" y="165.6294">getHandler()</text><text fill="#000000" font-family="sans-serif" font-size="13" lengthAdjust="spacing" textLength="149.5063" x="279.8203" y="180.7622">+ getHandlerAdapter()</text></g><g class="message" data-participant-1="Dispatcher" data-participant-2="Adapter"><polygon fill="#181818" points="429.3267,210.9609,439.3267,214.9609,429.3267,218.9609,433.3267,214.9609" style="stroke:#181818;stroke-width:1;"/><line style="stroke:#181818;stroke-width:1;" x1="272.8203" x2="435.3267" y1="214.9609" y2="214.9609"/><text fill="#000000" font-family="sans-serif" font-size="13" lengthAdjust="spacing" textLength="54.4502" x="279.8203" y="209.895">handle()</text></g><g class="message" data-participant-1="Adapter" data-participant-2="Controller"><polygon fill="#181818" points="611.4385,270.3594,621.4385,274.3594,611.4385,278.3594,615.4385,274.3594" style="stroke:#181818;stroke-width:1;"/><line style="stroke:#181818;stroke-width:1;" x1="451.3267" x2="617.4385" y1="274.3594" y2="274.3594"/><text fill="#000000" font-family="sans-serif" font-size="13" lengthAdjust="spacing" textLength="153.1118" x="458.3267" y="239.0278">invokeHandlerMethod()</text><text fill="#000000" font-family="sans-serif" font-size="13" lengthAdjust="spacing" textLength="135.2876" x="462.459" y="254.1606">#invokeAndHandle()</text><text fill="#000000" font-family="sans-serif" font-size="13" lengthAdjust="spacing" textLength="138.2266" x="462.459" y="269.2935">#invokeForRequest()</text></g><g class="message" data-participant-1="Controller" data-participant-2="Adapter"><polygon fill="#181818" points="462.3267,299.4922,452.3267,303.4922,462.3267,307.4922,458.3267,303.4922" style="stroke:#181818;stroke-width:1;"/><line style="stroke:#181818;stroke-width:1;stroke-dasharray:2.0,2.0;" x1="456.3267" x2="627.4385" y1="303.4922" y2="303.4922"/><text fill="#000000" font-family="sans-serif" font-size="13" lengthAdjust="spacing" textLength="121.3672" x="468.3267" y="298.4263">return returnValue</text></g><g class="message" data-participant-1="Adapter" data-participant-2="Converter"><polygon fill="#181818" points="735.5679,358.8906,745.5679,362.8906,735.5679,366.8906,739.5679,362.8906" style="stroke:#181818;stroke-width:1;"/><line style="stroke:#181818;stroke-width:1;" x1="451.3267" x2="741.5679" y1="362.8906" y2="362.8906"/><text fill="#000000" font-family="sans-serif" font-size="13" lengthAdjust="spacing" textLength="135.1099" x="458.3267" y="327.5591">handleReturnValue()</text><text fill="#000000" font-family="sans-serif" font-size="13" lengthAdjust="spacing" textLength="182.2158" x="462.459" y="342.6919">#writeMessageConverters()</text><text fill="#000000" font-family="sans-serif" font-size="13" lengthAdjust="spacing" textLength="130.6919" x="462.459" y="357.8247">#write(returnValue)</text></g><g class="message" data-participant-1="Converter" data-participant-2="Response"><polygon fill="#181818" points="993.7227,388.0234,1003.7227,392.0234,993.7227,396.0234,997.7227,392.0234" style="stroke:#181818;stroke-width:1;"/><line style="stroke:#181818;stroke-width:1;" x1="757.5679" x2="999.7227" y1="392.0234" y2="392.0234"/><text fill="#000000" font-family="sans-serif" font-size="13" lengthAdjust="spacing" textLength="93.1582" x="764.5679" y="386.9575">writeInternal()</text></g><g class="message" data-participant-1="Converter" data-participant-2="Response"><polygon fill="#181818" points="993.7227,432.2891,1003.7227,436.2891,993.7227,440.2891,997.7227,436.2891" style="stroke:#181818;stroke-width:1;"/><line style="stroke:#181818;stroke-width:1;" x1="752.5679" x2="999.7227" y1="436.2891" y2="436.2891"/><text fill="#000000" font-family="sans-serif" font-size="13" lengthAdjust="spacing" textLength="81.2373" x="759.5679" y="416.0903">flushBuffer()</text><text fill="#000000" font-family="sans-serif" font-size="13" lengthAdjust="spacing" textLength="224.1548" x="759.5679" y="431.2231">(outputMessage.getBody().flush())</text></g><path d="M885,449.2891 L885,489.2891 L1124,489.2891 L1124,459.2891 L1114,449.2891 L885,449.2891" fill="#FEFFDD" style="stroke:#181818;stroke-width:0.5;"/><path d="M1114,449.2891 L1114,459.2891 L1124,459.2891 L1114,449.2891" fill="#FEFFDD" style="stroke:#181818;stroke-width:0.5;"/><text fill="#000000" font-family="sans-serif" font-size="13" lengthAdjust="spacing" textLength="121.2496" x="891" y="466.356">flushBuffer()&#47196; &#51064;&#54644;</text><text fill="#000000" font-family="sans-serif" font-size="13" lengthAdjust="spacing" textLength="218.7009" x="891" y="481.4888">Response `committed` &#49345;&#53468;&#47196; &#48320;&#44221;</text><g class="message" data-participant-1="Adapter" data-participant-2="Dispatcher"><polygon fill="#181818" points="283.8203,496.5547,273.8203,500.5547,283.8203,504.5547,279.8203,500.5547" style="stroke:#181818;stroke-width:1;"/><line style="stroke:#181818;stroke-width:1;stroke-dasharray:2.0,2.0;" x1="277.8203" x2="445.3267" y1="500.5547" y2="500.5547"/></g><path d="M137,513.5547 L137,538.5547 L397,538.5547 L397,523.5547 L387,513.5547 L137,513.5547" fill="#FEFFDD" style="stroke:#181818;stroke-width:0.5;"/><path d="M387,513.5547 L387,523.5547 L397,523.5547 L387,513.5547" fill="#FEFFDD" style="stroke:#181818;stroke-width:0.5;"/><text fill="#000000" font-family="sans-serif" font-size="13" lengthAdjust="spacing" textLength="239.5644" x="143" y="530.6216">&#51060; &#49884;&#51216; &#51060;&#54980;&#47196; Response body &#49688;&#51221; &#48520;&#44032;</text><g class="message" data-participant-1="Dispatcher" data-participant-2="Dispatcher"><line style="stroke:#181818;stroke-width:1;" x1="272.8203" x2="314.8203" y1="564.8203" y2="564.8203"/><line style="stroke:#181818;stroke-width:1;" x1="314.8203" x2="314.8203" y1="564.8203" y2="577.8203"/><line style="stroke:#181818;stroke-width:1;" x1="273.8203" x2="314.8203" y1="577.8203" y2="577.8203"/><polygon fill="#181818" points="283.8203,573.8203,273.8203,577.8203,283.8203,581.8203,279.8203,577.8203" style="stroke:#181818;stroke-width:1;"/><text fill="#000000" font-family="sans-serif" font-size="13" lengthAdjust="spacing" textLength="119.4248" x="279.8203" y="559.7544">applyPostHandle()</text></g><g class="message" data-participant-1="Dispatcher" data-participant-2="Dispatcher"><line style="stroke:#181818;stroke-width:1;" x1="272.8203" x2="314.8203" y1="606.9531" y2="606.9531"/><line style="stroke:#181818;stroke-width:1;" x1="314.8203" x2="314.8203" y1="606.9531" y2="619.9531"/><line style="stroke:#181818;stroke-width:1;" x1="273.8203" x2="314.8203" y1="619.9531" y2="619.9531"/><polygon fill="#181818" points="283.8203,615.9531,273.8203,619.9531,283.8203,623.9531,279.8203,619.9531" style="stroke:#181818;stroke-width:1;"/><text fill="#000000" font-family="sans-serif" font-size="13" lengthAdjust="spacing" textLength="115.5845" x="279.8203" y="601.8872">afterCompletion()</text></g><g class="message" data-participant-1="Dispatcher" data-participant-2="Filter"><polygon fill="#181818" points="159.2842,629.9531,149.2842,633.9531,159.2842,637.9531,155.2842,633.9531" style="stroke:#181818;stroke-width:1;"/><line style="stroke:#181818;stroke-width:1;stroke-dasharray:2.0,2.0;" x1="153.2842" x2="266.8203" y1="633.9531" y2="633.9531"/></g><g class="message" data-participant-1="Filter" data-participant-2="Client"><polygon fill="#181818" points="39.2651,643.9531,29.2651,647.9531,39.2651,651.9531,35.2651,647.9531" style="stroke:#181818;stroke-width:1;"/><line style="stroke:#181818;stroke-width:1;stroke-dasharray:2.0,2.0;" x1="33.2651" x2="142.2842" y1="647.9531" y2="647.9531"/></g><!--SRC=[VPJFQjmm4CRlUWf1BpObUO0z598jONC8X3Jqb4DKUpOMqKggDDwIMqfw2FJIIw3G3QHlKD9GUkaBPRtlK7ajsTBIxSdwyvlvvfD6PWKgGyU2WqIYcK5USCqaqWCk4CouObnIPlqq8LvpgnaM5PWtOEO2iEM6nOITC5aAC7ibqovD2_fXGesLHAE4s5W-0clP1RZTEHWVtazI6KJjYpa1gvMqqC9XJ4XdbEwyyeReY4vEJuyTyRu6YuGLoESC8VZrbEC7OowcL66QvKDCv9r4k0iElaVq0j2VHPQVoPVHt3CkuRROQWt6Yk4GIO0SFnoY2-5ohYx1Anm1LgfiTUcBRcDFbXEVT5WyKCOVHomLtKsai9CKQ01h8_tdBHCra1B-bM6ZNd-jmU794D_LzS5mXCqkiD5U5accDVic6KISOjyQ8xgEFfHkGpBXx6xZfgAsrNuzdNRtbgaQTOs-f5rtYVkglChotJMNvJcHokahbsjhbkNt1MtkVw_kdivapvmNQZRZY52Uq-Rcu-fcqMBBdzVFZtyspj8x6uuoQL8ILP2qRdF_H9lFY-RXIpjSVVlK2lJwxvmDsjn-RHxkwFBNxVEFQnBBzlsMjcWYmBGMLyVAOkYi_yBJzYUZPjgzMAwaWnEwVwTn4P79y3pRDkf-OH7d8ybV]--></g></svg>